<?xml version="1.0" encoding="UTF-8"?>
<svg id="Layer_1" data-name="Layer 1" xmlns="http://www.w3.org/2000/svg" viewBox="0 0 300 300">
  <defs>
    <style>
      .cls-1 {
        fill: #c3bfd0;
      }

      .cls-2 {
        fill: #00a050;
      }

      .cls-3 {
        fill: #fff;
      }

      .cls-4 {
        fill: #2e3192;
      }

      .cls-5 {
        fill: #bfd730;
      }
    </style>
  </defs>
  <g>
    <path class="cls-4" d="M153.65,11.14v28.3h27.88v10.31h-27.88v100.84h-10.31V49.74h-27.88v-10.31h27.88V11.14h10.31M159.65,5.14h-22.31v28.3h-27.88v22.31h27.88v100.84h22.31V55.74h27.88v-22.31h-27.88V5.14h0Z"/>
    <polygon class="cls-3" points="143.34 7.84 140.27 5.14 140.27 11.13 143.34 11.13 143.34 7.84"/>
    <polygon class="cls-3" points="112.17 49.74 109.46 52.81 115.46 52.81 115.46 49.74 112.17 49.74"/>
    <polygon class="cls-3" points="115.46 36.14 112.39 33.44 112.39 39.43 115.46 39.43 115.46 36.14"/>
    <polygon class="cls-3" points="156.94 11.14 159.64 8.08 153.65 8.08 153.65 11.14 156.94 11.14"/>
    <polygon class="cls-3" points="156.59 36.73 159.65 39.43 159.65 33.44 156.59 33.44 156.59 36.73"/>
    <polygon class="cls-3" points="140.63 33.44 143.33 36.5 137.34 36.5 137.34 33.44 140.63 33.44"/>
    <polygon class="cls-3" points="137.34 52.44 140.4 49.74 140.4 55.73 137.34 55.73 137.34 52.44"/>
    <polygon class="cls-3" points="184.81 39.43 187.51 36.37 181.52 36.37 181.52 39.43 184.81 39.43"/>
    <polygon class="cls-3" points="181.53 53.04 184.59 55.74 184.59 49.75 181.53 49.75 181.53 53.04"/>
    <polygon class="cls-3" points="156.35 55.75 153.65 52.68 159.64 52.68 159.64 55.75 156.35 55.75"/>
  </g>
  <path class="cls-2" d="M158.61,154.25c2.68,8.46,6.62,16.49,8.22,25.24,1.73-.75,9.85-3.08,10.49-4.18,1.15-2-2.74-3.16-3.75-4.03-5.39-4.65.66-15.02,3.92-19.58,8.87-12.39,17.38-13.42,12.66-32.23-1.47-5.84-5.09-7.83-9.23-11.6,7.09-1.03,13.94,5.3,17.85,10.61,4.93,6.7,9.54,18.46,10.25,26.74,1.52,17.79-12.31,39.76-31.62,39.26,1.62-1.53,7.7-1.58,6.18-4.98-1.96-4.39-5.54.28-7.33.89-1.37.47-8.52,1.13-8.84,1.44,1.54,5.63-1.06,17.55-4.48,22.16-2.21,2.97-4.57-1.67-7.84-.44,3.59,4.16,7.13,5.97,12.49,3.38,5.64-2.72-2.5-6.27,1.01-11.32,4.66-6.68,21.37-11.82,29.21-13.65,1.1-.26,2.97.1,3.71-.4.83-.57.34-3.03,1.31-4.28,2.41-3.1,14.46-7.43,15.01-11.16.45-3.06-4.69-2.73-6.06-4.88-3.09-4.85-.52-14.07,1.33-19.16,6.64-18.27,18.97-22.65,12.01-45.25-1.36-4.4-2.84-8.62-6.66-11.53l-7.58-4.45c15.59-3.16,27.46,15.16,32.57,27.6,6.99,17.02,7.24,32.97-.77,49.7-4.21,8.8-12.92,20.2-23.58,20.15.79-1.14,2.54-1.39,3.81-2.35,1.6-1.21,3.52-2.9,2.1-5.03-3.25-4.87-4.86.69-6.77,2.11-3.69,2.74-11.61,3.3-14.4,8.2,11.27-.86,37.52-1.04,45.22-10.26,1.91-2.29,4.11-9.2.6-10.53-.28-.11-6.76-.36-3.78-2.74,3.6-2.87,10.3.31,11.26,4.57,1.49,6.58-7.31,21.19-11.14,26.77-10.66,15.53-31.09,35.58-50.23,39.01-11.67,2.09-32.2.26-40.95-8.66-.8-.81-3.17-3.33-1.17-3.54s4.09,1,6.15.6c1.69-1.61-7.06-8.56-8.61-8.72-1.81-.18-2.5,3.59-2.83,3.44l-2.95-4.12c-1.77.97-9.12,6.18-8.96,7.94.2,2.26,4.62.34,6.05.29.58-.02,1.95-.32,1.45.87-.44,1.04-4.17,4.45-5.33,5.24-18.01,12.28-43.77,7.59-60.61-4.45-12.46-8.91-36.87-35.96-38.52-51.33-.75-6.97,7.47-13.35,12.28-6.98-1.98,2.19-5.61.23-6.33,3.66-2.61,12.44,20.71,16.92,29.24,17.17-3.66-2.82-7.14-4.66-10.28-8.21-18.08-20.46-15.89-49.56-2.52-71.81,5.53-9.21,15.2-19.1,26.89-16.84l-5.82,3.27c-5.92,4.36-8.5,11.28-9.88,18.3-3.26,16.6,6.66,23.25,12.29,36.73,2.35,5.64,7.13,18.77,1.37,23.31-1.89,1.49-6.81,1.49-4.46,5.02,1.91,2.87,11.58,7.16,14.55,9.81.56.6.39,1.77,1.13,2.24,1.69,1.07,11.59,3.05,14.87,4.36,4.14,1.66,15.93,7.1,16.34,11.88.2,2.31-4.19,6.42-1.25,8.4,4.43,2.99,10.75,1.85,13.68-2.68-2.19-1.54-3.51,2.08-4.99,2.08-2.4,0-5.52-9.33-6.1-11.53-.93-3.54-1.42-7.22-.65-10.8-.3-.3-7.18-1.09-8.26-1.44-2.02-.64-3.92-5.06-6.46-1.24s6.51,4.73,5.32,5.6c-17.73.16-31.17-21.13-30.55-37.3.51-13.39,10.45-37.18,25.11-40.05.71-.14,3.54-.71,3.67.44-9.58,3.95-12.22,14.81-11.15,24.37.85,7.65,7.98,12.53,12.23,18.29,3.4,4.61,10.46,15.71,5.1,20.76-1.56,1.47-4.8,1.1-3.74,3.7.83,2.03,7.33,3.31,9.3,4.5,1.19-8,4.99-15.23,7.37-22.89.33-1.07.07-2.31.26-2.95,1.89-6.17,3.84-11.84,5.28-18.2.09-.39.82-1.16,1.03-2.18.57-2.72,1.39-15.26,3.05-16.34.48-.31,1.55-.43,2.06-.29.87.24,2.98,15.56,3.5,17.7.19.78.83,1.38.92,1.7,1.43,5.5,2.99,11.64,4.7,17.03ZM219.1,162.47c16.36-14.03,19.53-37.49,13.79-57.54-1.6-5.59-4.24-10.99-8.23-15.25-1.46-.12-.71.19-.43,1.02,4.43,13.34,6.46,19.5.84,33.42-3.28,8.13-12.55,22.11-13.03,30.44-.45,7.68,4.71,3.07,7.07,7.91ZM75.55,91.45c-4.41,3.68-7.09,9.93-8.68,15.38-4.83,16.5-3.38,35.72,6.72,49.97.73,1.03,5.45,6.67,6.15,6.78.35.06,6.35-2.4,6.65-2.6,2.67-1.75.18-9-.7-11.58-5.58-16.32-17.39-27.44-13.9-46.46.74-4.02,2.98-7.52,3.77-11.49ZM190.32,116.09c3.48,8.91,3.17,17.79-1.87,26.02-3.02,4.93-16.96,19.65-15.5,25.08.68,2.51,5.03,2.27,6.5,4.56,15.78-9,21.17-26.71,17.04-43.93-.99-4.12-2.56-9.18-6.16-11.74ZM124.43,169.97c3.33-3.3-4.92-14.02-7.01-17.08-8.9-13.02-15.11-17.27-9.17-34.62.18-.53,1.08-1.67-.11-1.58-10.37,13.37-9.32,37.26,2.32,49.63.95,1.01,7.73,6.65,8.54,6.58.38-.03,1.41-1.35,2.22-1.74.89-.43,2.71-.68,3.21-1.19ZM147.29,156.71c-4.5,1.34-7.65,16.42-7.49,20.76.2,5.24,5.9,23.84,12.61,14.91,5.06-6.74,5.44-18.09,3.1-25.92-.92-3.09-4.11-10.97-8.22-9.75ZM92.86,180.67c-2.08-3.62-8.39-3.79-11.13-5.6-1.75-1.16-4.6-8.13-7.23-1.86-1.33,3.19,5.43,7.46,7.49,7.46h10.86ZM128.08,208.27c-3.41.06-4.06-3.88-3.4-6.64.28-1.18,1.53-1.98,1.65-3.08.42-4.12-8.57-8.04-11.76-9.35-16.81-6.91-33.21-6.62-50.7-9.18-3.74-.55-7.41-1.54-10.93-2.86,3.69,6.31,10.58,10.84,16.72,14.68,15.87,9.95,36.12,19.17,55.19,17.59.71-.06,3.14-.22,3.23-1.16ZM168.6,209.43c18.67,3.23,38.47-5.5,54.4-14.57,7.5-4.27,15.81-9.71,20.73-16.84-16.56,4.28-34.14,3.57-50.74,7.96-4.61,1.22-19.91,6.39-21.97,10.32-1.79,3.43,3.61,8.18-.22,11.81-.7.66-2.23.28-2.2,1.32Z"/>
  <path class="cls-1" d="M159.2,151.9v-.59c0,.21.01.33,0,.59Z"/>
  <path class="cls-5" d="M168.6,209.43c-.03-1.04,1.5-.66,2.2-1.32,3.84-3.63-1.57-8.38.22-11.81,2.06-3.93,17.36-9.1,21.97-10.32,16.6-4.4,34.18-3.68,50.74-7.96-4.92,7.13-13.23,12.57-20.73,16.84-15.94,9.07-35.74,17.8-54.4,14.57Z"/>
  <path class="cls-5" d="M128.08,208.27c-.09.94-2.52,1.1-3.23,1.16-19.07,1.58-39.32-7.64-55.19-17.59-6.13-3.85-13.02-8.38-16.72-14.68,3.52,1.32,7.19,2.31,10.93,2.86,17.49,2.56,33.89,2.27,50.7,9.18,3.18,1.31,12.18,5.23,11.76,9.35-.11,1.1-1.36,1.9-1.65,3.08-.66,2.76-.02,6.7,3.4,6.64Z"/>
  <path class="cls-5" d="M219.1,162.47c-2.35-4.84-7.51-.23-7.07-7.91.48-8.33,9.75-22.31,13.03-30.44,5.62-13.93,3.59-20.09-.84-33.42-.28-.83-1.02-1.14.43-1.02,3.99,4.26,6.63,9.66,8.23,15.25,5.74,20.05,2.57,43.51-13.79,57.54Z"/>
  <path class="cls-5" d="M75.55,91.45c-.78,3.97-3.03,7.48-3.77,11.49-3.49,19.02,8.32,30.14,13.9,46.46.88,2.58,3.38,9.83.7,11.58-.3.2-6.29,2.66-6.65,2.6-.69-.12-5.42-5.76-6.15-6.78-10.11-14.25-11.55-33.46-6.72-49.97,1.6-5.45,4.28-11.7,8.68-15.38Z"/>
  <path class="cls-5" d="M190.32,116.09c3.61,2.56,5.18,7.62,6.16,11.74,4.13,17.22-1.25,34.93-17.04,43.93-1.46-2.29-5.82-2.06-6.5-4.56-1.47-5.44,12.48-20.15,15.5-25.08,5.04-8.23,5.35-17.11,1.87-26.02Z"/>
  <path class="cls-5" d="M124.43,169.97c-.51.5-2.32.75-3.21,1.19-.81.39-1.84,1.71-2.22,1.74-.81.06-7.59-5.57-8.54-6.58-11.63-12.37-12.69-36.25-2.32-49.63,1.2-.09.3,1.05.11,1.58-5.94,17.35.28,21.6,9.17,34.62,2.09,3.06,10.34,13.79,7.01,17.08Z"/>
  <path class="cls-5" d="M147.29,156.71c4.1-1.22,7.3,6.66,8.22,9.75,2.34,7.82,1.96,19.18-3.1,25.92-6.71,8.93-12.41-9.66-12.61-14.91-.16-4.34,2.99-19.42,7.49-20.76Z"/>
  <g>
    <path class="cls-4" d="M248.86,237.11c-.79-.81-2.03-.97-3.02-.41-.92.53-1.85,1.06-2.77,1.57-11.19,6.24-23.06,11.38-35.45,15.3-.47.15-.95.3-1.43.45-1.78.55-2.34,2.78-1.04,4.11l.02.02c.65.66,1.62.91,2.5.64,1.29-.4,2.57-.81,3.85-1.23,12.28-4.06,24.04-9.3,35.15-15.6.55-.31,1.1-.63,1.65-.95,1.4-.81,1.67-2.73.53-3.89h0ZM56.93,238.28c-.93-.52-1.85-1.04-2.77-1.57-.98-.57-2.22-.4-3.02.41h0c-1.14,1.16-.87,3.09.54,3.9.55.32,1.1.63,1.65.93,11.11,6.31,22.86,11.55,35.14,15.61,1.28.42,2.56.83,3.85,1.23.89.27,1.85.02,2.5-.64l.02-.02c1.3-1.33.73-3.56-1.04-4.11-.48-.15-.95-.3-1.43-.45-12.39-3.92-24.25-9.06-35.45-15.3Z"/>
    <path class="cls-4" d="M247.09,236.37c-.43,0-.86.11-1.25.33-.92.53-1.85,1.06-2.77,1.57-11.19,6.24-23.06,11.38-35.45,15.3-.47.15-.95.3-1.43.45-1.78.55-2.34,2.78-1.04,4.11l.02.02c.48.48,1.12.75,1.78.75.24,0,.49-.04.72-.11,1.29-.4,2.57-.81,3.85-1.23,12.28-4.06,24.04-9.3,35.15-15.6.55-.31,1.1-.63,1.65-.95,1.4-.81,1.67-2.73.53-3.89h0c-.48-.49-1.12-.75-1.77-.75h0ZM52.91,236.37c-.65,0-1.29.25-1.77.74-1.14,1.16-.87,3.09.54,3.9.55.32,1.1.63,1.65.93,11.11,6.31,22.86,11.55,35.14,15.61,1.28.42,2.56.83,3.85,1.23.24.07.48.11.72.11.66,0,1.3-.26,1.78-.75l.02-.02c1.3-1.33.73-3.56-1.04-4.11-.48-.15-.95-.3-1.43-.45-12.39-3.92-24.25-9.06-35.45-15.3-.93-.52-1.85-1.04-2.77-1.57-.39-.22-.82-.33-1.25-.33h0Z"/>
  </g>
  <g>
    <path class="cls-4" d="M240.48,226.42c-.79-.8-2.01-.97-2.99-.42s-1.89,1.04-2.84,1.55c-11.42,6.08-23.55,10.98-36.21,14.52-1.82.51-3.67.99-5.52,1.44-13.77,3.39-28.14,5.18-42.93,5.18s-29.15-1.79-42.93-5.18c-1.85-.45-3.7-.93-5.52-1.44-12.67-3.54-24.79-8.44-36.21-14.52-.95-.5-1.9-1.02-2.84-1.55s-2.2-.38-2.99.42h0c-1.15,1.18-.86,3.13.58,3.92.54.3,1.09.6,1.64.89,11.31,6.16,23.32,11.17,35.86,14.88,1.8.53,3.61,1.04,5.44,1.52,15.02,3.95,30.76,6.05,46.97,6.05s31.95-2.1,46.97-6.05c1.82-.48,3.64-.98,5.44-1.52,12.54-3.71,24.55-8.72,35.87-14.87.55-.3,1.09-.6,1.64-.9,1.44-.8,1.72-2.74.57-3.92h0Z"/>
    <path class="cls-4" d="M238.72,225.68c-.42,0-.84.1-1.22.32-.94.53-1.89,1.04-2.84,1.55-11.42,6.08-23.55,10.98-36.21,14.52-1.82.51-3.67.99-5.52,1.44-13.77,3.39-28.14,5.18-42.93,5.18s-29.15-1.79-42.93-5.18c-1.85-.45-3.7-.93-5.52-1.44-12.67-3.54-24.79-8.44-36.21-14.52-.95-.5-1.9-1.02-2.84-1.55-.38-.21-.8-.32-1.22-.32-.65,0-1.29.25-1.77.74h0c-1.15,1.18-.86,3.13.58,3.92.54.3,1.09.6,1.64.89,11.31,6.16,23.32,11.17,35.86,14.88,1.8.53,3.61,1.04,5.44,1.52,15.02,3.95,30.76,6.05,46.97,6.05s31.95-2.1,46.97-6.05c1.82-.48,3.64-.98,5.44-1.52,12.54-3.71,24.55-8.72,35.87-14.87.55-.3,1.09-.6,1.64-.9,1.44-.8,1.72-2.74.57-3.92h0c-.48-.5-1.12-.75-1.77-.75h0Z"/>
  </g>
  <g>
    <path class="cls-4" d="M257.23,247.81c-.81-.82-2.07-.98-3.06-.38-.9.54-1.8,1.06-2.7,1.58-11.01,6.38-22.64,11.74-34.78,15.98-.49.17-.97.34-1.46.51-1.73.59-2.25,2.78-.97,4.08l.09.09c.67.68,1.66.92,2.57.62,1.24-.42,2.47-.85,3.7-1.3,11.96-4.31,23.52-9.73,34.54-16.22.56-.32,1.11-.65,1.66-.98,1.38-.83,1.63-2.73.51-3.88l-.1-.1ZM48.52,249c-.9-.52-1.81-1.05-2.7-1.59-.99-.59-2.25-.43-3.05.39l-.1.1c-1.13,1.15-.88,3.05.5,3.88.55.33,1.11.66,1.66.98,11.02,6.48,22.58,11.91,34.54,16.22,1.23.44,2.46.88,3.7,1.3.9.31,1.9.06,2.57-.62l.09-.09c1.28-1.3.76-3.49-.97-4.08-.49-.17-.98-.34-1.46-.51-12.14-4.24-23.77-9.6-34.78-15.98Z"/>
    <path class="cls-4" d="M44.54,247.06c-.65,0-1.29.25-1.77.74l-.1.1c-1.13,1.15-.88,3.05.5,3.88.55.33,1.11.66,1.66.98,11.02,6.48,22.58,11.91,34.54,16.22,1.23.44,2.46.88,3.7,1.3.26.09.52.13.79.13.66,0,1.3-.26,1.78-.75l.09-.09c1.28-1.3.76-3.49-.97-4.08-.49-.17-.98-.34-1.46-.51-12.14-4.24-23.77-9.6-34.78-15.98-.9-.52-1.81-1.05-2.7-1.59-.4-.24-.84-.35-1.28-.35h0ZM255.47,247.07c-.44,0-.89.12-1.29.36-.9.54-1.8,1.06-2.7,1.58-11.01,6.38-22.64,11.74-34.78,15.98-.49.17-.97.34-1.46.51-1.73.59-2.25,2.78-.97,4.08l.09.09c.48.49,1.12.75,1.78.75.26,0,.53-.04.79-.13,1.24-.42,2.47-.85,3.7-1.3,11.96-4.31,23.52-9.73,34.54-16.22.56-.32,1.11-.65,1.66-.98,1.38-.83,1.63-2.73.51-3.88l-.1-.1c-.48-.49-1.12-.74-1.77-.74h0Z"/>
  </g>
  <g>
    <path class="cls-4" d="M265.26,258.49c-.81-.83-2.09-.98-3.08-.37-.88.54-1.76,1.08-2.64,1.6-10.93,6.55-22.39,12.07-34.24,16.53-1.71.63-3.41,1.25-5.13,1.84-22.3,7.75-45.94,11.77-70.17,11.77s-47.87-4.02-70.17-11.77c-1.72-.59-3.42-1.21-5.13-1.84-11.85-4.46-23.3-9.98-34.24-16.53-.88-.52-1.76-1.06-2.64-1.6-.99-.61-2.27-.46-3.08.37h0c-1.12,1.15-.88,3.03.48,3.87.55.34,1.11.68,1.67,1.01,10.87,6.6,22.24,12.2,34.02,16.76,1.69.66,3.37,1.29,5.08,1.89,23.46,8.45,48.41,12.84,74.02,12.84s50.56-4.39,74.02-12.84c1.71-.6,3.39-1.23,5.08-1.89,11.77-4.56,23.15-10.16,34.02-16.76.56-.33,1.12-.67,1.67-1.01,1.36-.84,1.6-2.72.48-3.86h0Z"/>
    <path class="cls-4" d="M263.49,257.75c-.45,0-.9.12-1.31.37-.88.54-1.76,1.08-2.64,1.6-10.93,6.55-22.39,12.07-34.24,16.53-1.71.63-3.41,1.25-5.13,1.84-22.3,7.75-45.94,11.77-70.17,11.77s-47.87-4.02-70.17-11.77c-1.72-.59-3.42-1.21-5.13-1.84-11.85-4.46-23.3-9.98-34.24-16.53-.88-.52-1.76-1.06-2.64-1.6-.41-.25-.86-.37-1.31-.37-.65,0-1.29.25-1.77.74h0c-1.12,1.15-.88,3.03.48,3.87.55.34,1.11.68,1.67,1.01,10.87,6.6,22.24,12.2,34.02,16.76,1.69.66,3.37,1.29,5.08,1.89,23.46,8.45,48.41,12.84,74.02,12.84s50.56-4.39,74.02-12.84c1.71-.6,3.39-1.23,5.08-1.89,11.77-4.56,23.15-10.16,34.02-16.76.56-.33,1.12-.67,1.67-1.01,1.36-.84,1.6-2.72.48-3.86h0c-.48-.5-1.12-.75-1.77-.75h0Z"/>
  </g>
  <g>
    <path class="cls-4" d="M112.94,264.83c-.27-.96-.77-1.76-1.48-2.4-.72-.63-1.62-1.08-2.71-1.32-1.21-.27-2.34-.25-3.4.09-1.06.33-1.97.95-2.73,1.84s-1.29,2-1.59,3.33c-.31,1.37-.31,2.62,0,3.75.31,1.14.88,2.09,1.71,2.85s1.88,1.29,3.15,1.58c1.56.35,2.93.23,4.11-.37,1.18-.6,2.1-1.61,2.75-3.02l-7.02-1.6.71-3.13,11.06,2.51-.81,3.57c-.6,1.36-1.48,2.54-2.65,3.55s-2.55,1.71-4.13,2.12c-1.58.41-3.25.42-5,.02-1.97-.45-3.65-1.3-5.04-2.54-1.39-1.25-2.36-2.77-2.9-4.55s-.59-3.68-.14-5.69c.46-2.01,1.32-3.7,2.59-5.09,1.27-1.38,2.8-2.34,4.59-2.86s3.66-.57,5.61-.12c2.3.52,4.17,1.54,5.61,3.04,1.44,1.51,2.25,3.35,2.44,5.52l-4.71-1.07Z"/>
    <path class="cls-4" d="M106.97,257.03c-1.02,0-2.01.14-2.99.43-1.79.53-3.32,1.48-4.59,2.86-1.27,1.38-2.13,3.08-2.59,5.09-.46,2.01-.41,3.91.14,5.69s1.51,3.3,2.9,4.55c1.39,1.25,3.07,2.1,5.04,2.54.86.2,1.71.29,2.53.29s1.67-.1,2.47-.31c1.58-.41,2.96-1.12,4.13-2.12,1.17-1,2.06-2.19,2.65-3.55l.81-3.57-11.06-2.51-.71,3.13,7.02,1.6c-.65,1.41-1.56,2.42-2.75,3.02-.74.38-1.56.57-2.46.57-.53,0-1.08-.07-1.66-.2-1.27-.29-2.32-.81-3.15-1.58s-1.4-1.71-1.71-2.85c-.31-1.13-.3-2.39,0-3.75.3-1.33.83-2.44,1.59-3.33.76-.89,1.67-1.51,2.73-1.84.58-.18,1.18-.27,1.81-.27.52,0,1.05.06,1.59.19,1.09.25,2,.69,2.71,1.32.72.64,1.21,1.44,1.48,2.4l4.71,1.07c-.18-2.17-.99-4.02-2.44-5.52-1.44-1.51-3.31-2.52-5.61-3.04-.89-.2-1.77-.3-2.63-.3h0Z"/>
  </g>
  <g>
    <path class="cls-4" d="M133.16,282.61l-6.43-10.19-1.14,9.26-4.17-.51,2.55-20.78,4.17.51-1.14,9.32,8.71-8.39,5.03.62-9.84,9.25,7.53,11.56-5.27-.65Z"/>
    <polygon class="cls-4" points="123.97 260.39 121.43 281.18 125.59 281.69 126.73 272.43 133.16 282.61 138.43 283.26 130.9 271.7 140.74 262.45 135.71 261.83 127 270.22 128.14 260.9 123.97 260.39 123.97 260.39"/>
  </g>
  <g>
    <path class="cls-4" d="M148.01,282.99c-1.16-.52-2.08-1.25-2.74-2.2s-1-2.07-1-3.35l4.5.07c.05.86.34,1.55.88,2.05.54.51,1.29.77,2.25.78.98.02,1.75-.21,2.32-.67.57-.46.86-1.07.87-1.83,0-.62-.17-1.13-.55-1.54-.38-.41-.84-.73-1.41-.97-.57-.24-1.35-.5-2.34-.8-1.35-.42-2.45-.83-3.3-1.24-.84-.4-1.57-1-2.16-1.8-.6-.8-.89-1.86-.87-3.18.02-1.24.34-2.31.98-3.23.63-.91,1.51-1.6,2.64-2.08s2.41-.7,3.85-.68c2.16.03,3.91.58,5.24,1.65,1.33,1.07,2.06,2.55,2.17,4.43l-4.62-.07c-.03-.72-.33-1.32-.89-1.8-.56-.48-1.31-.72-2.25-.74-.82-.01-1.48.19-1.97.6-.5.41-.75,1.02-.76,1.82,0,.56.17,1.03.53,1.4.36.38.82.68,1.37.92.55.24,1.32.52,2.31.83,1.35.42,2.46.84,3.31,1.25.85.41,1.58,1.02,2.19,1.83.61.81.9,1.86.88,3.16-.02,1.12-.32,2.16-.92,3.11-.59.95-1.46,1.7-2.58,2.26s-2.46.82-4,.79c-1.46-.02-2.77-.29-3.93-.81Z"/>
    <path class="cls-4" d="M151.75,262.35c-1.36,0-2.58.23-3.66.68-1.13.47-2.01,1.17-2.64,2.08-.63.91-.96,1.99-.98,3.23-.02,1.32.27,2.38.87,3.18.6.8,1.32,1.4,2.16,1.8.84.4,1.94.81,3.3,1.24,1,.29,1.78.56,2.34.8.57.24,1.04.56,1.41.97.37.41.56.92.55,1.54-.01.76-.3,1.37-.87,1.83-.55.45-1.29.67-2.23.67-.03,0-.06,0-.1,0-.96-.01-1.71-.28-2.25-.78-.54-.51-.84-1.19-.88-2.05l-4.5-.07c0,1.28.33,2.4,1,3.35.67.95,1.58,1.68,2.74,2.2s2.47.79,3.93.81c.06,0,.12,0,.19,0,1.46,0,2.73-.27,3.82-.8,1.13-.55,1.99-1.3,2.58-2.26.6-.95.9-1.99.92-3.11.02-1.3-.28-2.35-.88-3.16-.61-.81-1.34-1.42-2.19-1.83-.85-.41-1.96-.83-3.31-1.25-1-.31-1.77-.59-2.31-.83-.55-.24-1-.54-1.37-.92-.37-.38-.54-.84-.53-1.4.01-.8.27-1.41.76-1.82.48-.4,1.11-.6,1.9-.6.03,0,.05,0,.08,0,.94.01,1.69.26,2.25.74.56.48.86,1.08.89,1.8l4.62.07c-.11-1.88-.83-3.36-2.17-4.43-1.33-1.07-3.08-1.62-5.24-1.65-.06,0-.13,0-.19,0h0Z"/>
  </g>
  <g>
    <path class="cls-4" d="M180.42,272.99c.85.88,1.34,1.93,1.47,3.17.11,1.11-.06,2.12-.52,3.02s-1.18,1.64-2.17,2.23c-.99.58-2.18.95-3.6,1.09l-8.98.92-2.13-20.83,8.6-.88c1.41-.14,2.65-.04,3.73.31,1.07.35,1.91.91,2.52,1.67.61.76.97,1.66,1.07,2.69.12,1.21-.1,2.26-.66,3.14-.56.88-1.37,1.55-2.4,2,1.2.1,2.22.59,3.08,1.46ZM169.55,270.76l3.82-.39c.99-.1,1.74-.4,2.23-.91.49-.5.7-1.17.61-2.01s-.42-1.45-1-1.86c-.58-.4-1.37-.55-2.37-.45l-3.82.39.54,5.22ZM176.96,278.2c.52-.54.73-1.24.64-2.12-.09-.89-.46-1.57-1.11-2.01-.65-.45-1.48-.62-2.5-.51l-4.12.42.57,5.61,4.21-.43c1.01-.1,1.78-.42,2.3-.96Z"/>
    <path class="cls-4" d="M174.27,261.65c-.38,0-.78.02-1.19.06l-8.6.88,2.13,20.83,8.98-.92c1.41-.14,2.61-.51,3.6-1.09.99-.58,1.71-1.32,2.17-2.23s.63-1.91.52-3.02c-.13-1.23-.62-2.29-1.47-3.17-.85-.88-1.88-1.37-3.08-1.46,1.04-.45,1.84-1.11,2.4-2,.56-.88.78-1.93.66-3.14-.11-1.03-.46-1.93-1.07-2.69-.61-.76-1.45-1.32-2.52-1.67-.76-.25-1.61-.38-2.54-.38h0ZM169.55,270.76l-.54-5.22,3.82-.39c.2-.02.39-.03.58-.03.73,0,1.33.16,1.79.48.58.4.92,1.02,1,1.86s-.12,1.5-.61,2.01c-.49.5-1.23.8-2.23.91l-3.82.39h0ZM170.45,279.59l-.57-5.61,4.12-.42c.19-.02.38-.03.56-.03.77,0,1.41.18,1.94.54.65.45,1.02,1.12,1.11,2.01.09.88-.12,1.58-.64,2.12-.52.54-1.29.86-2.3.96l-4.21.43h0Z"/>
  </g>
  <g>
    <path class="cls-4" d="M192.51,279.33c-1.25-.23-2.31-.73-3.18-1.49s-1.46-1.77-1.76-3.02l4.39-1c.25.83.7,1.42,1.34,1.79.65.37,1.44.44,2.38.23.96-.22,1.66-.62,2.1-1.2.44-.58.58-1.24.41-1.99-.14-.6-.44-1.06-.89-1.37-.46-.31-.99-.51-1.6-.61-.61-.1-1.43-.17-2.47-.23-1.42-.09-2.58-.23-3.49-.42-.92-.19-1.76-.61-2.53-1.24-.77-.63-1.3-1.6-1.59-2.88-.27-1.21-.21-2.33.19-3.37.4-1.03,1.09-1.91,2.08-2.64.98-.73,2.18-1.25,3.58-1.57,2.11-.48,3.93-.35,5.48.37s2.6,1.99,3.15,3.79l-4.51,1.02c-.2-.69-.63-1.21-1.29-1.54-.66-.33-1.45-.39-2.36-.19-.8.18-1.39.53-1.78,1.05-.39.52-.49,1.17-.31,1.95.12.55.41.96.85,1.24.44.28.96.47,1.54.57.59.1,1.4.19,2.44.26,1.41.09,2.58.23,3.51.43.93.2,1.78.62,2.56,1.26.78.64,1.32,1.6,1.6,2.87.25,1.09.2,2.17-.16,3.23-.35,1.07-1.01,2-1.98,2.8-.97.8-2.2,1.38-3.7,1.72-1.42.32-2.76.37-4.01.14Z"/>
    <path class="cls-4" d="M193.83,258.06c-.75,0-1.54.09-2.38.28-1.4.32-2.6.84-3.58,1.57-.98.73-1.68,1.61-2.08,2.64-.4,1.04-.46,2.16-.19,3.37.29,1.29.82,2.25,1.59,2.88.77.64,1.61,1.05,2.53,1.24.91.19,2.08.33,3.49.42,1.04.05,1.86.13,2.47.23.61.1,1.14.3,1.6.61.46.31.76.76.89,1.37.17.74.03,1.4-.41,1.99-.44.58-1.14.98-2.1,1.2-.34.08-.67.12-.97.12-.53,0-.99-.12-1.4-.35-.65-.37-1.09-.96-1.34-1.79l-4.39,1c.3,1.24.89,2.25,1.76,3.02.87.77,1.93,1.26,3.18,1.49.52.1,1.06.14,1.61.14.77,0,1.58-.09,2.41-.28,1.5-.34,2.74-.91,3.7-1.72.97-.8,1.63-1.74,1.98-2.8.35-1.06.41-2.14.16-3.23-.29-1.27-.82-2.22-1.6-2.87-.78-.64-1.64-1.06-2.56-1.26-.93-.2-2.1-.34-3.51-.43-1.04-.07-1.86-.16-2.44-.26-.59-.1-1.1-.29-1.54-.57-.44-.28-.73-.69-.85-1.24-.18-.78-.07-1.43.31-1.95.38-.52.98-.87,1.78-1.05.35-.08.69-.12,1-.12.5,0,.96.1,1.36.31.66.33,1.09.85,1.29,1.54l4.51-1.02c-.55-1.8-1.6-3.07-3.15-3.79-.93-.44-1.97-.66-3.11-.66h0Z"/>
  </g>
</svg>